<svg xmlns="http://www.w3.org/2000/svg" width="16" height="17" viewBox="0 0 16 17" fill="none">
  <path d="M8 2.29999C7.6318 2.29999 7.33333 2.59847 7.33333 2.96665V7.63332H2.66667C2.29848 7.63332 2 7.93179 2 8.29999C2 8.66819 2.29848 8.96665 2.66667 8.96665H7.33333V13.6333C7.33333 14.0015 7.6318 14.3 8 14.3C8.3682 14.3 8.66667 14.0015 8.66667 13.6333V8.96665H13.3333C13.7015 8.96665 14 8.66819 14 8.29999C14 7.93179 13.7015 7.63332 13.3333 7.63332H8.66667V2.96665C8.66667 2.59847 8.3682 2.29999 8 2.29999Z" fill="#9FADBC"/>
</svg>