<svg xmlns="http://www.w3.org/2000/svg" width="16" height="17" viewBox="0 0 16 17" fill="none">
  <path fill-rule="evenodd" clip-rule="evenodd" d="M4 2.96665V3.63332H3.33C2.59467 3.63332 2 4.22865 2 4.96265V12.9707C2 13.704 2.59533 14.3 3.33 14.3H12.67C13.4053 14.3 14 13.7047 14 12.9707V4.96265C14 4.22999 13.4047 3.63332 12.67 3.63332H12V2.96665C12 2.59865 11.7013 2.29999 11.3333 2.29999C10.9653 2.29999 10.6667 2.59865 10.6667 2.96665V3.63332H5.33333V2.96665C5.33333 2.59865 5.03467 2.29999 4.66667 2.29999C4.29867 2.29999 4 2.59865 4 2.96665ZM3.5 6.68065V12.112C3.5 12.482 3.796 12.776 4.162 12.776H11.8387C12.2 12.776 12.5 12.4787 12.5 12.112V6.68065H3.5ZM6 8.96665V7.63265H4.66667V8.96665H6ZM11.3333 7.63265V8.96665H10V7.63265H11.3333ZM7.33333 8.96665H8.66733V7.63265H7.33333V8.96665ZM4.66667 11.6333V10.3H6V11.6333H4.66667ZM7.33333 11.6333H8.66733V10.3H7.33333V11.6333ZM11.3333 10.3V11.6333H10V10.3H11.3333Z" fill="#8C9BAB"/>
</svg>