<svg xmlns="http://www.w3.org/2000/svg" width="28" height="29" viewBox="0 0 28 29" fill="none">
  <g clip-path="url(#clip0_1_311)">
    <path d="M28 0.5H0V28.5H28V0.5Z" fill="black" fill-opacity="0.01"/>
    <path fill-rule="evenodd" clip-rule="evenodd" d="M15.1573 17.1865C15.2661 17.2938 15.3524 17.4215 15.4113 17.5624C15.4703 17.7033 15.5006 17.8545 15.5006 18.0073C15.5006 18.16 15.4703 18.3112 15.4113 18.4521C15.3524 18.593 15.2661 18.7208 15.1573 18.828C14.9368 19.0457 14.6394 19.1677 14.3296 19.1677C14.0197 19.1677 13.7223 19.0457 13.5018 18.828L10.0426 15.398C9.92343 15.2798 9.82879 15.1391 9.76421 14.9842C9.69963 14.8292 9.66638 14.6629 9.66638 14.495C9.66638 14.3271 9.69963 14.1609 9.76421 14.0059C9.82879 13.8509 9.92343 13.7102 10.0426 13.592L13.4901 10.1737C13.7107 9.95567 14.0083 9.8334 14.3185 9.8334C14.6286 9.8334 14.9262 9.95567 15.1468 10.1737C15.2556 10.2809 15.3419 10.4087 15.4008 10.5496C15.4598 10.6905 15.4901 10.8417 15.4901 10.9944C15.4901 11.1472 15.4598 11.2984 15.4008 11.4393C15.3419 11.5802 15.2556 11.708 15.1468 11.8152L12.4425 14.495L15.1573 17.1865Z" fill="#948873"/>
  </g>
  <defs>
    <clipPath id="clip0_1_311">
      <rect width="28" height="28" fill="white" transform="translate(0 0.5)"/>
    </clipPath>
  </defs>
</svg>