<svg xmlns="http://www.w3.org/2000/svg" width="20" height="21" viewBox="0 0 20 21" fill="none">
  <path fill-rule="evenodd" clip-rule="evenodd" d="M3.33331 4.26667C3.33331 3.80643 3.70641 3.43333 4.16665 3.43333H5.83331C6.29355 3.43333 6.66665 3.80643 6.66665 4.26667V5.93333C6.66665 6.39357 6.29355 6.76667 5.83331 6.76667H4.16665C3.70641 6.76667 3.33331 6.39357 3.33331 5.93333V4.26667ZM3.33331 9.26667C3.33331 8.80642 3.70641 8.43333 4.16665 8.43333H5.83331C6.29355 8.43333 6.66665 8.80642 6.66665 9.26667V10.9333C6.66665 11.3936 6.29355 11.7667 5.83331 11.7667H4.16665C3.70641 11.7667 3.33331 11.3936 3.33331 10.9333V9.26667ZM9.16665 3.43333C8.7064 3.43333 8.33331 3.80643 8.33331 4.26667V5.93333C8.33331 6.39357 8.7064 6.76667 9.16665 6.76667H10.8333C11.2936 6.76667 11.6666 6.39357 11.6666 5.93333V4.26667C11.6666 3.80643 11.2936 3.43333 10.8333 3.43333H9.16665ZM8.33331 9.26667C8.33331 8.80642 8.7064 8.43333 9.16665 8.43333H10.8333C11.2936 8.43333 11.6666 8.80642 11.6666 9.26667V10.9333C11.6666 11.3936 11.2936 11.7667 10.8333 11.7667H9.16665C8.7064 11.7667 8.33331 11.3936 8.33331 10.9333V9.26667ZM14.1666 3.43333C13.7064 3.43333 13.3333 3.80643 13.3333 4.26667V5.93333C13.3333 6.39357 13.7064 6.76667 14.1666 6.76667H15.8333C16.2936 6.76667 16.6666 6.39357 16.6666 5.93333V4.26667C16.6666 3.80643 16.2936 3.43333 15.8333 3.43333H14.1666ZM13.3333 9.26667C13.3333 8.80642 13.7064 8.43333 14.1666 8.43333H15.8333C16.2936 8.43333 16.6666 8.80642 16.6666 9.26667V10.9333C16.6666 11.3936 16.2936 11.7667 15.8333 11.7667H14.1666C13.7064 11.7667 13.3333 11.3936 13.3333 10.9333V9.26667ZM4.16665 13.4333C3.70641 13.4333 3.33331 13.8064 3.33331 14.2667V15.9333C3.33331 16.3936 3.70641 16.7667 4.16665 16.7667H5.83331C6.29355 16.7667 6.66665 16.3936 6.66665 15.9333V14.2667C6.66665 13.8064 6.29355 13.4333 5.83331 13.4333H4.16665ZM8.33331 14.2667C8.33331 13.8064 8.7064 13.4333 9.16665 13.4333H10.8333C11.2936 13.4333 11.6666 13.8064 11.6666 14.2667V15.9333C11.6666 16.3936 11.2936 16.7667 10.8333 16.7667H9.16665C8.7064 16.7667 8.33331 16.3936 8.33331 15.9333V14.2667ZM14.1666 13.4333C13.7064 13.4333 13.3333 13.8064 13.3333 14.2667V15.9333C13.3333 16.3936 13.7064 16.7667 14.1666 16.7667H15.8333C16.2936 16.7667 16.6666 16.3936 16.6666 15.9333V14.2667C16.6666 13.8064 16.2936 13.4333 15.8333 13.4333H14.1666Z" fill="#9FADBC"/>
</svg>