<svg xmlns="http://www.w3.org/2000/svg" width="24" height="25" viewBox="0 0 24 25" fill="none">
  <path fill-rule="evenodd" clip-rule="evenodd" d="M6.58597 18.329C6.7717 18.5148 6.99221 18.6622 7.23492 18.7628C7.47762 18.8633 7.73776 18.9151 8.00047 18.9151C8.26318 18.9151 8.52332 18.8633 8.76602 18.7628C9.00873 18.6622 9.22924 18.5148 9.41497 18.329L6.58497 15.5C6.39917 15.6857 6.25178 15.9062 6.15122 16.1489C6.05065 16.3917 5.9989 16.6518 5.9989 16.9145C5.9989 17.1772 6.05065 17.4374 6.15122 17.6801C6.25178 17.9228 6.40017 18.1433 6.58597 18.329ZM11.384 5.978C11.8524 5.50875 12.4089 5.13663 13.0216 4.883C13.6342 4.62937 14.2909 4.49921 14.954 4.5C15.926 4.5 16.899 4.78 17.742 5.339C17.762 5.313 17.785 5.289 17.808 5.265C17.9043 5.16644 18.0197 5.08862 18.1472 5.03633C18.2747 4.98405 18.4116 4.95841 18.5493 4.96099C18.6871 4.96357 18.8229 4.99432 18.9484 5.05134C19.0738 5.10837 19.1863 5.19046 19.2788 5.29256C19.3713 5.39467 19.442 5.51463 19.4864 5.64507C19.5309 5.77551 19.5482 5.91366 19.5372 6.05103C19.5263 6.18839 19.4873 6.32206 19.4228 6.44382C19.3583 6.56558 19.2695 6.67284 19.162 6.759C19.8046 7.72976 20.0919 8.8928 19.9752 10.0511C19.8586 11.2094 19.3452 12.2918 18.522 13.115L17.797 13.84C17.015 14.623 15.984 16.05 15.485 17.047L13.976 20.063C13.727 20.563 13.203 20.647 12.805 20.25L4.24897 11.695C3.85197 11.298 3.94097 10.771 4.43597 10.523L7.45297 9.015C8.44197 8.521 9.87297 7.489 10.659 6.703L11.384 5.978ZM14.123 15.608C14.64 14.633 15.691 13.212 16.477 12.426L17.202 11.7C17.6984 11.2032 18.0081 10.5502 18.0786 9.85144C18.1491 9.15266 17.9762 8.45096 17.589 7.865C17.399 7.579 16.871 7.099 16.73 7.005C16.2308 6.67484 15.6454 6.49918 15.047 6.5C14.6466 6.49937 14.25 6.57785 13.88 6.73093C13.51 6.884 13.1739 7.10866 12.891 7.392L11.941 8.343C11.157 9.128 9.72197 10.163 8.73997 10.654L6.99997 11.524L13.07 17.593L14.123 15.608Z" fill="#9FADBC"/>
</svg>