<svg xmlns="http://www.w3.org/2000/svg" width="16" height="17" viewBox="0 0 16 17" fill="none">
  <path fill-rule="evenodd" clip-rule="evenodd" d="M1.90497 13.6333C1.0634 13.6333 0.381165 12.9511 0.381165 12.1095V4.49046C0.381165 3.64888 1.0634 2.96664 1.90497 2.96664H14.0955C14.9371 2.96664 15.6192 3.64888 15.6192 4.49046V12.1095C15.6192 12.9511 14.9371 13.6333 14.0955 13.6333H1.90497ZM14.0955 9.06189V7.53807H6.4764V9.06189H14.0955ZM14.0955 6.01426V4.49046H6.4764V6.01426H14.0955ZM14.0955 10.5857V12.1095H6.4764V10.5857H14.0955ZM1.90497 7.53807V9.06189H4.9526V7.53807H1.90497ZM1.90497 10.5857V12.1095H4.9526V10.5857H1.90497ZM1.90497 6.01426V4.49046H4.9526V6.01426H1.90497Z" fill="#8C9BAB"/>
</svg>